<svg viewBox="0 0 24 24" fill="none" xmlns="http://www.w3.org/2000/svg">
<circle cx="12.1527" cy="12" r="11.3916" transform="rotate(90 12.1527 12)" stroke="white" stroke-width="0.91133"/>
<path d="M13.064 6.5325C13.064 6.02919 12.656 5.62117 12.1527 5.62117C11.6494 5.62117 11.2413 6.02919 11.2413 6.5325L13.064 6.5325ZM11.5083 18.1129C11.8642 18.4688 12.4412 18.4688 12.7971 18.1129L18.5968 12.3132C18.9527 11.9573 18.9527 11.3803 18.5968 11.0244C18.2409 10.6685 17.6638 10.6685 17.3079 11.0244L12.1527 16.1796L6.99742 11.0244C6.64152 10.6685 6.0645 10.6685 5.7086 11.0244C5.35271 11.3803 5.35271 11.9573 5.7086 12.3132L11.5083 18.1129ZM11.2413 6.5325L11.2413 17.4685L13.064 17.4685L13.064 6.5325L11.2413 6.5325Z" fill="white"/>
</svg>
