<svg viewBox="0 0 18 18" xmlns="http://www.w3.org/2000/svg"><path d="m15.3041 10.689174h1.9688c.5626 0 .845-.2813.6807-.8371-.1778-.55351-.8157-1.35567-1.6617-2.30747-.459-.54227-1.1464-1.12618-1.3557-1.41869-.2925-.37577-.2093-.54227 0-.87641 0 0 2.3986-3.37854 2.6495-4.5261.126-.41739 0-.723404-.5951-.723404h-1.9689c-.5018 0-.7313.264387-.8573.556904 0 0-1.0013 2.44024-2.42 4.02544-.459.45902-.6671.60528-.918.60528-.1249 0-.306-.14626-.306-.56253v-3.90056c0-.500646-.1452-.723406-.56255-.723406h-3.09502c-.31277 0-.50065.232883-.50065.452266 0 .47477.70991.58503.78304 1.91934v2.89927c0 .63453-.11476.75041-.36452.75041-.66716 0-2.29174-2.4515-3.25479-5.25625-.18901-.544529-.37802-.765036-.88092-.765036h-1.96996c-.562527 0-.67503.264382-.67503.556896 0 .5209.667156 3.1074 3.10852 6.52869 1.62795 2.33556 3.92082 3.60246 6.00666 3.60246 1.25222 0 1.40632-.2824 1.40632-.7662v-1.76521c0-.56253.1181-.67504.5153-.67504.2914 0 .792.14626 1.9609 1.27244 1.3355 1.33541 1.556 1.93401 2.3064 1.93401z" fill="#fff" transform="translate(0 3.75)"/></svg>