<svg viewBox="0 0 61 60" fill="none" xmlns="http://www.w3.org/2000/svg">
<path d="M30.0362 60C46.6048 60 60.0363 46.5685 60.0363 30C60.0363 13.4315 46.6048 0 30.0362 0C13.4676 0 0.0361328 13.4315 0.0361328 30C0.0361328 46.5685 13.4676 60 30.0362 60Z" fill="url(#paint0_linear_315_11048)"/>
<path fill-rule="evenodd" clip-rule="evenodd" d="M13.6157 29.6834C22.3613 25.8731 28.1931 23.3611 31.1111 22.1474C39.4424 18.6821 41.1736 18.0801 42.3019 18.0603C42.5501 18.0559 43.105 18.1174 43.4645 18.4091C43.768 18.6553 43.8515 18.988 43.8914 19.2215C43.9314 19.455 43.9811 19.9869 43.9416 20.4025C43.4901 25.1462 41.5366 36.6579 40.5427 41.971C40.1222 44.2191 39.2941 44.9729 38.4925 45.0467C36.7503 45.207 35.4274 43.8953 33.74 42.7893C31.0996 41.0584 29.608 39.981 27.045 38.2921C24.0831 36.3402 26.0032 35.2674 27.6912 33.5142C28.1329 33.0553 35.8089 26.0734 35.9575 25.4401C35.9761 25.3609 35.9933 25.0656 35.8179 24.9097C35.6425 24.7538 35.3836 24.8071 35.1968 24.8495C34.932 24.9096 30.7139 27.6976 22.5426 33.2134C21.3453 34.0356 20.2608 34.4361 19.2892 34.4152C18.218 34.392 16.1576 33.8095 14.6258 33.3116C12.747 32.7009 11.2538 32.378 11.3839 31.3408C11.4516 30.8006 12.1955 30.2481 13.6157 29.6834Z" fill="white"/>
<defs>
<linearGradient id="paint0_linear_315_11048" x1="3000.04" y1="0" x2="3000.04" y2="5955.5" gradientUnits="userSpaceOnUse">
<stop stop-color="#2AABEE"/>
<stop offset="1" stop-color="#229ED9"/>
</linearGradient>
</defs>
</svg>
