<svg viewBox="0 0 18 18" xmlns="http://www.w3.org/2000/svg"><g fill="#fff" transform="translate(1 1)"><path d="m8 1.44133c2.136 0 2.3893.008 3.2327.04667.872.04 1.77.23867 2.4053.874.6413.64133.834 1.53067.874 2.40533.0387.84334.0467 1.09667.0467 3.23267s-.008 2.3893-.0467 3.2327c-.0393.8673-.2427 1.774-.874 2.4053-.6413.6413-1.53.834-2.4053.874-.8434.0387-1.0967.0467-3.2327.0467s-2.38933-.008-3.23267-.0467c-.86066-.0393-1.77933-.2473-2.40533-.874-.638-.638-.834-1.536-.874-2.4053-.03867-.8434-.04667-1.0967-.04667-3.2327s.008-2.38933.04667-3.23267c.03933-.864.24467-1.776.874-2.40533.64-.64 1.53267-.834 2.40533-.874.84334-.03867 1.09667-.04667 3.23267-.04667zm0-1.44133c-2.17267 0-2.44533.00933337-3.29867.048-1.23666.056667-2.46466.400667-3.35866 1.29467-.897337.89733-1.238003 2.12266-1.29467 3.35866-.03866663.85334-.048 1.126-.048 3.29867 0 2.1727.00933337 2.4453.048 3.2987.056667 1.2353.402 2.4666 1.29467 3.3586.89666.8967 2.124 1.238 3.35866 1.2947.85334.0387 1.126.048 3.29867.048 2.1727 0 2.4453-.0093 3.2987-.048 1.236-.0567 2.4653-.4013 3.3586-1.2947.898-.898 1.238-2.1226 1.2947-3.3586.0387-.8534.048-1.126.048-3.2987 0-2.17267-.0093-2.44533-.048-3.29867-.0567-1.23666-.4013-2.46533-1.2947-3.35866-.8953-.895337-2.126-1.23867-3.3586-1.29467-.8534-.03866663-1.126-.048-3.2987-.048z"/><path d="m8 3.892c-2.26867 0-4.108 1.83933-4.108 4.108 0 2.2687 1.83933 4.108 4.108 4.108 2.2687 0 4.108-1.8393 4.108-4.108 0-2.26867-1.8393-4.108-4.108-4.108zm0 6.7747c-1.47267 0-2.66667-1.19403-2.66667-2.6667s1.194-2.66667 2.66667-2.66667 2.6667 1.194 2.6667 2.66667-1.19403 2.6667-2.6667 2.6667z"/><path d="m12.2707 4.68933c.5302 0 .96-.4298.96-.96 0-.53019-.4298-.96-.96-.96s-.96.42981-.96.96c0 .5302.4298.96.96.96z"/></g></svg>