<svg height="18" viewBox="0 0 18 18" width="18" xmlns="http://www.w3.org/2000/svg"><path d="m16.541434.44770253c-1.134-1.13475-3.5608.08925-5.5236 1.428704-.7841-.30033-1.63480002-.46466-2.52306002-.46466-3.90575 0-7.08334 3.17758-7.08334 7.08333 0 .88825.16505 1.73897997.46467 2.52307997-1.33945999 1.9635-2.56275 4.3895-1.42870999 5.5236.30034.301.70337999.4512 1.20628999.4512.81671 0 1.89763-.396 3.23142-1.1865.35133-.2082.71471-.4405 1.08588-.6934.78412.2996 1.63483.4646 2.52308.4646 3.90577002 0 7.08337002-3.1775 7.08337002-7.08328997 0-.89321-.1665-1.74887-.4704-2.53654 1.5357-2.24258 2.4891-4.45471 1.4337-5.510832zm-1.0016 1.001584c.068.068.1743.81175-.9527 2.71504-.0715.12113-.1466.24367-.2245.36763-.5079-.75013-1.156-1.39825-1.9069-1.90613 2.1328-1.34229 2.9956-1.26437 3.0841-1.17654zm-7.04506002 1.37912c2.15686002 0 4.03606002 1.21125 4.99306002 2.98988-.9634 1.31892-2.1845 2.73062-3.56220002 4.10833-1.37703 1.37703997-2.78874 2.59883997-4.10765 3.56223997-1.77863-.957-2.98988-2.8362-2.98988-4.99306997 0-3.12446 2.54221-5.66738 5.66667-5.66738zm-4.33075 11.75974997c-1.90259 1.127-2.64563 1.0193-2.71434.9527-.08783-.0878-.16504-.952 1.17655-3.0834.50787.7502 1.156 1.3983 1.90612 1.9062-.12396.0779-.24721.153-.36833.2245zm9.99741002-6.09307997c0 3.12447997-2.5422 5.66667997-5.66666002 5.66667997-.36975 0-.73171-.0361-1.08163-.1041 1.15246-.9003 2.34809-1.9628 3.51479002-3.1295.9293-.92929997 2.0789-2.19223997 3.1258-3.53382997.0702.35629.1077.72392.1077 1.10075z" fill="#fff" transform="translate(.5 .5)"/></svg>