<svg viewBox="0 0 18 18" xmlns="http://www.w3.org/2000/svg"><path d="m15.665308 1.760002c-.184-.69267-.726-1.238668-1.4146-1.424001-1.2474-.336001-6.250708-.336001-6.250708-.336001s-5.003332 0-6.251332.336001c-.688.185333-1.23.730671-1.414 1.424001-.334668 1.256-.334668 3.876-.334668 3.876s0 2.62.334668 3.876c.184.6927.726 1.2387 1.41467 1.424 1.24733.336 6.250662.336 6.250662.336s5.003308 0 6.251308-.336c.688-.1853 1.23-.7307 1.4147-1.424.333992-1.256.333992-3.876.333992-3.876s0-2.62-.334692-3.876zm-9.30131 6.25533v-4.75867l4.18131 2.37934z" fill="#fff" transform="translate(1 3.36)"/></svg>