<svg viewBox="0 0 62 60" fill="none" xmlns="http://www.w3.org/2000/svg">
<mask id="mask0_315_11022" style="mask-type:luminance" maskUnits="userSpaceOnUse" x="0" y="0" width="62" height="60">
<path d="M61.0935 0H0.962891V60H61.0935V0Z" fill="white"/>
</mask>
<g mask="url(#mask0_315_11022)">
<path d="M0.962891 28.8C0.962891 15.2236 0.962891 8.43534 5.18973 4.21766C9.41659 0 16.2196 0 29.8256 0H32.2308C45.8368 0 52.6398 0 56.8666 4.21766C61.0934 8.43534 61.0935 15.2236 61.0935 28.8V31.2C61.0935 44.7764 61.0934 51.5647 56.8666 55.7824C52.6398 60 45.8368 60 32.2308 60H29.8256C16.2196 60 9.41659 60 5.18973 55.7824C0.962891 51.5647 0.962891 44.7764 0.962891 31.2V28.8Z" fill="#0077FF"/>
<path d="M32.9578 43.2252C19.253 43.2252 11.4361 33.8502 11.1104 18.2502H17.9753C18.2008 29.7002 23.2617 34.5502 27.2703 35.5502V18.2502H33.7346V28.1252C37.6932 27.7002 41.8517 23.2002 43.2548 18.2502H49.719C48.6416 24.3503 44.1318 28.8502 40.9249 30.7002C44.1318 32.2002 49.2682 36.1252 51.2225 43.2252H44.1068C42.5785 38.4752 38.7705 34.8002 33.7346 34.3002V43.2252H32.9578Z" fill="white"/>
</g>
</svg>
