<svg viewBox="0 0 18 18" xmlns="http://www.w3.org/2000/svg"><path d="m15.9898918 1.15276041c-.221 2.32861-1.1809 7.98133-1.6682 10.58980999-.2063 1.1048-.6138 1.4742-1.0066 1.5098-.8556.0786-1.5049-.5658-2.3335-1.1084-1.29629995-.8494-2.02910995-1.3785-3.28731995-2.20829999-1.45461-.95871-.51187-1.48531.3167-2.3458.21727-.22586 3.98571995-3.65432 4.05941995-3.96488.0086-.03929.0184-.18413-.0688-.26024-.0871-.0761-.2135-.05033-.3044-.02946-.1301.02946-2.20091995 1.39814-6.21367995 4.10605-.58798.40385-1.12072.60026-1.59823.59044-.52538-.01105-1.53685-.29706-2.28932-.54257-.92187-.29951-1.655923-.45909-1.592092-.96728.033143-.26515.397716-.53643 1.094942-.81385 4.29386-1.87073 7.15767-3.10439 8.59018-3.70096 4.09129995-1.701345 4.94079995-1.997176 5.49559995-2.00712041.6948-.00969659.8617.56355541.8053 1.15276041z" fill="#fff" fill-rule="evenodd" transform="translate(1 2.32)"/></svg>