<svg viewBox="0 0 24 24" fill="none" xmlns="http://www.w3.org/2000/svg">
<g clip-path="url(#clip0_2020_4062)">
<path d="M6.63945 23.9943C6.63945 23.9945 6.63933 23.9946 6.63918 23.9946C4.53627 23.9946 2.43336 23.9902 0.330455 24C0.0792452 24.0011 -0.00810842 23.9468 -0.00756585 23.6766C0.00111526 19.8309 -0.0113638 15.9852 0.000572687 12.14C0.0114241 8.64421 1.25282 5.6552 3.79639 3.24565C5.716 1.4275 8.00889 0.366778 10.6414 0.0754179C16.3916 -0.561558 21.7006 2.89027 23.4477 8.3892C25.5013 14.8539 21.7223 21.77 15.1551 23.5681C14.0781 23.8633 12.9788 23.9881 11.8655 23.9924C10.1239 23.9989 8.38182 23.994 6.63972 23.994C6.63957 23.994 6.63945 23.9942 6.63945 23.9943V23.9943ZM12.7945 8.37992C12.2189 8.73977 11.5005 8.77791 10.9323 8.40657V8.40657C9.2351 7.29647 6.94383 7.97251 6.21787 9.80802C5.76862 10.9442 5.90535 12.0543 6.50326 13.1112C7.01925 14.0227 7.75931 14.7356 8.56069 15.3873C9.56824 16.2065 10.591 17.0074 11.6061 17.8174C11.7852 17.9601 11.9441 17.9346 12.1161 17.7968C12.8188 17.232 13.5209 16.6656 14.2338 16.1138C15.1128 15.4339 15.9917 14.7552 16.6786 13.8681C17.397 12.9403 17.8316 11.9257 17.7084 10.7152C17.5136 8.79939 15.7004 7.50048 13.8236 7.94864C13.4459 8.0388 13.1046 8.18604 12.7945 8.37992Z" fill="url(#paint0_linear_2020_4062)"/>
<path d="M10.9323 8.40602C11.5005 8.77732 12.2188 8.73897 12.7944 8.37923C13.1045 8.18541 13.4458 8.03823 13.8237 7.94809C15.7004 7.49993 17.5132 8.79884 17.7085 10.7147C17.8317 11.9251 17.3971 12.9403 16.6787 13.8675C15.9918 14.7546 15.1128 15.4334 14.2339 16.1132C13.5209 16.665 12.8189 17.2315 12.1162 17.7963C11.9442 17.9346 11.7853 17.9596 11.6062 17.8169C10.5911 17.0068 9.56833 16.206 8.56078 15.3867C7.7594 14.7351 7.01934 14.0222 6.50336 13.1106C5.90544 12.0537 5.76872 10.9436 6.21796 9.80748C6.94338 7.97197 9.23519 7.29593 10.9323 8.40602V8.40602Z" fill="white"/>
</g>
<defs>
<linearGradient id="paint0_linear_2020_4062" x1="-0.00756836" y1="12" x2="24.0079" y2="12" gradientUnits="userSpaceOnUse">
<stop stop-color="#ED90C8"/>
<stop offset="1" stop-color="#FFAF88"/>
</linearGradient>
<clipPath id="clip0_2020_4062">
<rect width="24.0152" height="24" fill="white" transform="translate(-0.00756836)"/>
</clipPath>
</defs>
</svg>
