<svg viewBox="0 0 24 24" fill="none" xmlns="http://www.w3.org/2000/svg">
<g clip-path="url(#clip0_2020_1898)">
<path d="M6.6392 23.9943C6.6392 23.9945 6.63908 23.9946 6.63893 23.9946C4.53603 23.9946 2.43312 23.9902 0.330211 24C0.0790011 24.0011 -0.00835256 23.9468 -0.00780999 23.6766C0.000871114 19.8309 -0.011608 15.9852 0.000328546 12.14C0.0111799 8.64421 1.25258 5.6552 3.79614 3.24565C5.71575 1.4275 8.00865 0.366778 10.6412 0.075418C16.3913 -0.561558 21.7004 2.89027 23.4475 8.3892C25.5011 14.8539 21.7221 21.77 15.1548 23.5681C14.0778 23.8633 12.9786 23.9881 11.8652 23.9924C10.1237 23.9989 8.38157 23.994 6.63947 23.994C6.63933 23.994 6.6392 23.9942 6.6392 23.9943ZM12.7942 8.37992C12.2186 8.73977 11.5003 8.77791 10.932 8.40657C9.23485 7.29647 6.94358 7.97251 6.21763 9.80802C5.76838 10.9442 5.90511 12.0543 6.50302 13.1112C7.019 14.0227 7.75907 14.7356 8.56044 15.3873C9.56799 16.2065 10.5907 17.0074 11.6059 17.8174C11.7849 17.9601 11.9439 17.9346 12.1159 17.7968C12.8185 17.232 13.5206 16.6656 14.2335 16.1138C15.1125 15.4339 15.9915 14.7552 16.6784 13.8681C17.3967 12.9403 17.8313 11.9257 17.7082 10.7152C17.5134 8.79939 15.7001 7.50048 13.8234 7.94864C13.4457 8.0388 13.1044 8.18604 12.7942 8.37992Z" fill="url(#paint0_linear_2020_1898)"/>
<path d="M10.9319 8.40601C11.5001 8.7773 12.2183 8.73896 12.7939 8.37921C13.104 8.1854 13.4454 8.03822 13.8232 7.94808C15.7 7.49992 17.5127 8.79883 17.708 10.7146C17.8312 11.9251 17.3966 12.9403 16.6782 13.8675C15.9913 14.7546 15.1124 15.4334 14.2334 16.1132C13.5205 16.665 12.8184 17.2314 12.1157 17.7963C11.9437 17.9346 11.7848 17.9596 11.6057 17.8169C10.5906 17.0068 9.56784 16.206 8.56029 15.3867C7.75891 14.7351 7.01885 14.0221 6.50287 13.1106C5.90496 12.0537 5.76823 10.9436 6.21748 9.80747C6.94289 7.97196 9.2347 7.29591 10.9319 8.40601Z" fill="white"/>
</g>
<defs>
<linearGradient id="paint0_linear_2020_1898" x1="-0.0078125" y1="12" x2="24.0076" y2="12" gradientUnits="userSpaceOnUse">
<stop stop-color="#B882F3"/>
<stop offset="1" stop-color="#4C4482"/>
</linearGradient>
<clipPath id="clip0_2020_1898">
<rect width="24.0152" height="24" fill="white" transform="translate(-0.0078125)"/>
</clipPath>
</defs>
</svg>
