<svg viewBox="0 0 1707 304" fill="none" xmlns="http://www.w3.org/2000/svg">
<g clip-path="url(#clip0_128_20464)">
<path fill-rule="evenodd" clip-rule="evenodd" d="M625.058 0.342041C678.618 23.0609 704.828 90.0218 704.828 147.246C704.828 204.47 678.618 271.687 625.286 294.378C692.521 278.15 736.366 221.609 736.366 147.246C736.366 72.883 692.521 16.342 625.058 0.342041Z" fill="white"/>
<path fill-rule="evenodd" clip-rule="evenodd" d="M544.147 0.342041C476.684 16.342 432.839 73.1107 432.839 147.246C432.839 221.381 476.656 278.15 544.147 294.378C490.587 271.659 464.377 204.698 464.377 147.246C464.377 89.794 490.815 23.0609 544.147 0.342041Z" fill="white"/>
<path fill-rule="evenodd" clip-rule="evenodd" d="M1222.8 269.722C1218.38 283.616 1210.74 294.975 1200.55 303.544H1245.3C1234.88 294.975 1227.44 283.616 1222.82 269.722H1222.8Z" fill="white"/>
<path fill-rule="evenodd" clip-rule="evenodd" d="M1461.14 0.228002L1425.89 0.000244141V280.598C1425.89 290.79 1422.65 298.904 1416.38 304H1461.14C1454.87 298.904 1451.62 290.79 1451.62 280.598V23.6301C1451.62 13.2102 1455.1 5.32409 1461.14 0.228002Z" fill="white"/>
<path fill-rule="evenodd" clip-rule="evenodd" d="M1210.26 0.455078C1216.04 5.55116 1219.55 13.2095 1219.55 23.1739L1330.85 290.562L1345.47 249.537L1240.63 0.455078H1210.26Z" fill="white"/>
<path fill-rule="evenodd" clip-rule="evenodd" d="M997.814 23.5164V280.484C997.814 290.677 994.566 298.563 988.526 303.659H1023.54V0.342041H988.526C994.566 5.43813 997.814 13.3242 997.814 23.5164Z" fill="white"/>
<path fill-rule="evenodd" clip-rule="evenodd" d="M1076.19 132.897C1090.09 137.537 1101.46 144.94 1110.03 155.132V110.406C1101.46 120.826 1090.09 128.256 1076.19 132.897Z" fill="white"/>
<path fill-rule="evenodd" clip-rule="evenodd" d="M1111.43 303.659H1160.83V269.837C1150.63 285.58 1133.71 297.652 1111.43 303.659Z" fill="white"/>
<path fill-rule="evenodd" clip-rule="evenodd" d="M1160.8 33.9363V0.342041H1111.4C1133.65 6.37763 1150.57 18.1926 1160.8 33.9363Z" fill="white"/>
<path fill-rule="evenodd" clip-rule="evenodd" d="M245.978 269.837C233.442 283.73 224.183 293.922 210.964 303.659H255.721C250.393 295.089 242.502 283.73 245.978 269.837Z" fill="white"/>
<path fill-rule="evenodd" clip-rule="evenodd" d="M402.726 282.107C379.536 188.043 356.117 94.1783 332.927 0.342041H311.816L309.737 9.1392L366.089 242.022H366.317L375.348 278.862C377.912 289.282 376.744 298.107 371.416 303.659H417.085C410.133 298.79 405.034 291.616 402.698 282.107H402.726Z" fill="white"/>
<path fill-rule="evenodd" clip-rule="evenodd" d="M1707 303.659C1700.05 298.79 1694.95 291.616 1692.61 282.107C1669.42 188.043 1646.01 94.1783 1622.81 0.342041H1601.7L1599.62 9.1392L1644.32 193.936C1634.81 201.851 1623.5 207.972 1610.82 212.271C1629.14 218.477 1644.69 228.385 1655.95 241.965V242.022H1656.01C1656.01 242.022 1656.18 242.221 1656.26 242.335L1665.24 278.862C1667.8 289.282 1666.63 298.107 1661.3 303.659H1706.97H1707Z" fill="white"/>
<path fill-rule="evenodd" clip-rule="evenodd" d="M1535.86 269.837C1523.36 283.73 1514.07 293.922 1500.85 303.659H1545.61C1540.28 295.089 1532.39 283.73 1535.86 269.837Z" fill="white"/>
<path fill-rule="evenodd" clip-rule="evenodd" d="M811.094 280.484V0.342041H776.08C782.12 5.43813 785.596 13.3242 785.596 23.5164V280.484C785.596 290.677 782.12 298.563 776.08 303.659H820.609C814.569 298.563 811.094 290.677 811.094 280.484Z" fill="white"/>
<path fill-rule="evenodd" clip-rule="evenodd" d="M948.811 33.9363V0.342041H899.182C921.433 6.37763 938.612 18.1926 948.811 33.9363Z" fill="white"/>
<path fill-rule="evenodd" clip-rule="evenodd" d="M172.731 33.9363V0.342041H123.102C145.353 6.37763 162.532 18.1926 172.731 33.9363Z" fill="white"/>
<path fill-rule="evenodd" clip-rule="evenodd" d="M35.0135 280.484V0.342041H0C6.03975 5.43813 9.51546 13.3242 9.51546 23.5164V280.484C9.51546 290.677 6.03975 298.563 0 303.659H44.5289C38.4892 298.563 35.0135 290.677 35.0135 280.484Z" fill="white"/>
<path fill-rule="evenodd" clip-rule="evenodd" d="M112.904 135.63H109.999C143.331 148.099 159.285 186.334 158.687 221.95C158.117 256.142 141.593 291.473 109.999 303.63H112.904C164.784 303.63 195.524 270.889 195.239 219.9C194.954 169.195 164.812 135.601 112.904 135.601V135.63Z" fill="white"/>
</g>
<defs>
<clipPath id="clip0_128_20464">
<rect width="1707" height="304" fill="white"/>
</clipPath>
</defs>
</svg>
