<svg viewBox="0 0 337 60" fill="none" xmlns="http://www.w3.org/2000/svg">
<g clip-path="url(#clip0_128_13421)">
<path fill-rule="evenodd" clip-rule="evenodd" d="M123.366 0.0651855C133.937 4.54917 139.11 17.7651 139.11 29.0594C139.11 40.3536 133.937 53.6202 123.411 58.0985C136.681 54.8957 145.335 43.7363 145.335 29.0594C145.335 14.3825 136.681 3.22308 123.366 0.0651855Z" fill="white"/>
<path fill-rule="evenodd" clip-rule="evenodd" d="M107.397 0.0651855C94.0824 3.22308 85.4287 14.4274 85.4287 29.0594C85.4287 43.6913 94.0768 54.8957 107.397 58.0985C96.8264 53.6145 91.6533 40.3986 91.6533 29.0594C91.6533 17.7202 96.8713 4.54917 107.397 0.0651855Z" fill="white"/>
<path fill-rule="evenodd" clip-rule="evenodd" d="M241.341 53.2334C240.469 55.9755 238.962 58.2175 236.949 59.9088H245.783C243.725 58.2175 242.257 55.9755 241.347 53.2334H241.341Z" fill="white"/>
<path fill-rule="evenodd" clip-rule="evenodd" d="M288.382 0.0442198L281.426 -0.000732422V55.3804C281.426 57.392 280.785 58.9935 279.548 59.9993H288.382C287.145 58.9935 286.504 57.392 286.504 55.3804V4.66306C286.504 2.6065 287.19 1.05003 288.382 0.0442198Z" fill="white"/>
<path fill-rule="evenodd" clip-rule="evenodd" d="M238.867 0.0881348C240.008 1.09394 240.7 2.60546 240.7 4.57212L262.668 57.346L265.553 49.249L244.861 0.0881348H238.867Z" fill="white"/>
<path fill-rule="evenodd" clip-rule="evenodd" d="M196.937 4.63908V55.3564C196.937 57.3681 196.296 58.9245 195.104 59.9303H202.014V0.0651855H195.104C196.296 1.07099 196.937 2.62746 196.937 4.63908Z" fill="white"/>
<path fill-rule="evenodd" clip-rule="evenodd" d="M212.405 26.2286C215.149 27.1445 217.392 28.6054 219.085 30.6171V21.7896C217.392 23.8461 215.149 25.3127 212.405 26.2286Z" fill="white"/>
<path fill-rule="evenodd" clip-rule="evenodd" d="M219.361 59.9318H229.111V53.2563C227.098 56.3637 223.758 58.7461 219.361 59.9318Z" fill="white"/>
<path fill-rule="evenodd" clip-rule="evenodd" d="M229.105 6.69564V0.0651855H219.355C223.747 1.25642 227.087 3.58832 229.105 6.69564Z" fill="white"/>
<path fill-rule="evenodd" clip-rule="evenodd" d="M48.5478 53.2563C46.0737 55.9984 44.2462 58.0101 41.6372 59.9318H50.4708C49.4193 58.2404 47.8618 55.9984 48.5478 53.2563Z" fill="white"/>
<path fill-rule="evenodd" clip-rule="evenodd" d="M79.4851 55.6767C74.9081 37.1115 70.2861 18.5855 65.709 0.0651855H61.5424L61.132 1.80147L72.2541 47.7651H72.2991L74.0815 55.0362C74.5876 57.0927 74.357 58.8346 73.3056 59.9303H82.3191C80.9471 58.9695 79.9406 57.5535 79.4795 55.6767H79.4851Z" fill="white"/>
<path fill-rule="evenodd" clip-rule="evenodd" d="M336.908 59.9303C335.536 58.9695 334.53 57.5535 334.069 55.6767C329.492 37.1115 324.87 18.5855 320.293 0.0651855H316.126L315.715 1.80147L324.538 38.2746C322.66 39.8367 320.427 41.0448 317.925 41.8932C321.541 43.1182 324.611 45.0736 326.832 47.7539V47.7651H326.843C326.843 47.7651 326.877 47.8045 326.894 47.8269L328.665 55.0362C329.171 57.0927 328.941 58.8346 327.889 59.9303H336.903H336.908Z" fill="white"/>
<path fill-rule="evenodd" clip-rule="evenodd" d="M303.13 53.2563C300.662 55.9984 298.829 58.0101 296.22 59.9318H305.053C304.002 58.2404 302.444 55.9984 303.13 53.2563Z" fill="white"/>
<path fill-rule="evenodd" clip-rule="evenodd" d="M160.084 55.3564V0.0651855H153.174C154.366 1.07099 155.052 2.62746 155.052 4.63908V55.3564C155.052 57.3681 154.366 58.9245 153.174 59.9303H161.962C160.77 58.9245 160.084 57.3681 160.084 55.3564Z" fill="white"/>
<path fill-rule="evenodd" clip-rule="evenodd" d="M187.265 6.69564V0.0651855H177.47C181.861 1.25642 185.252 3.58832 187.265 6.69564Z" fill="white"/>
<path fill-rule="evenodd" clip-rule="evenodd" d="M34.091 6.69564V0.0651855H24.2959C28.6874 1.25642 32.078 3.58832 34.091 6.69564Z" fill="white"/>
<path fill-rule="evenodd" clip-rule="evenodd" d="M6.91056 55.3564V0.0651855H0C1.19206 1.07099 1.87805 2.62746 1.87805 4.63908V55.3564C1.87805 57.3681 1.19206 58.9245 0 59.9303H8.78861C7.59655 58.9245 6.91056 57.3681 6.91056 55.3564Z" fill="white"/>
<path fill-rule="evenodd" clip-rule="evenodd" d="M22.2834 26.7666H21.7098C28.2886 29.2277 31.4375 36.7741 31.3194 43.8035C31.2069 50.552 27.9456 57.5252 21.7098 59.9245H22.2834C32.5227 59.9245 38.5898 53.4626 38.5336 43.3989C38.4774 33.3914 32.5283 26.761 22.2834 26.761V26.7666Z" fill="white"/>
</g>
<defs>
<clipPath id="clip0_128_13421">
<rect width="336.908" height="60" fill="white"/>
</clipPath>
</defs>
</svg>
