<svg viewBox="0 0 88 53" fill="none" xmlns="http://www.w3.org/2000/svg">
<path d="M56.49 12.25L55.01 0.26001L53.53 12.25C53.52 12.3 53.52 12.36 53.51 12.42C52.39 20.94 38.07 22.4001 34.71 14.3101C34.43 13.6401 34.21 12.96 34.04 12.25L31.22 0.26001L28.4 12.25C26.99 18.25 21.41 22.94 14.26 24.13L0 26.5L14.26 28.87C21.41 30.06 26.99 34.75 28.4 40.75L31.22 52.74L34.04 40.75C34.2 40.04 34.43 39.3601 34.7 38.6901C38.07 30.6001 52.39 32.06 53.51 40.58C53.52 40.64 53.52 40.7 53.53 40.75L55.01 52.74L56.49 40.75C57.23 34.75 60.1701 30.06 63.9301 28.87L66.41 28.08C68.93 27.29 71.76 27.58 73.97 28.87C76 30.05 77.6 34.75 78 40.75L78.8 52.74L79.6 40.75C80 34.75 81.6 30.05 83.63 28.87C84.65 28.27 87.7 26.5 87.7 26.5C87.7 26.5 84.65 24.72 83.63 24.13C81.6 22.94 80 18.25 79.6 12.25L78.8101 0.26001L78 12.25C77.6 18.25 76.01 22.94 73.97 24.13C71.76 25.42 68.94 25.71 66.42 24.92L63.9301 24.13C60.1701 22.94 57.24 18.25 56.5 12.25H56.49Z" fill="white"/>
</svg>
