<svg xmlns="http://www.w3.org/2000/svg" xmlns:xlink="http://www.w3.org/1999/xlink"><defs>
<linearGradient id="paint0_linear_186_3432" x1="-0.0078125" y1="12" x2="24.0076" y2="12" gradientUnits="userSpaceOnUse">
<stop stop-color="#1E3ED7"/>
<stop offset="1" stop-color="#02061B"/>
</linearGradient>
<clipPath id="clip0_186_3432">
<rect width="24.0152" height="24" fill="white" transform="translate(-0.0078125)"/>
</clipPath>

<linearGradient id="paint0_linear_2020_2607" x1="-0.0078125" y1="12" x2="24.0076" y2="12" gradientUnits="userSpaceOnUse">
<stop stop-color="#6BC59B"/>
<stop offset="1" stop-color="#394058"/>
</linearGradient>
<clipPath id="clip0_2020_2607">
<rect width="24.0152" height="24" fill="white" transform="translate(-0.0078125)"/>
</clipPath>

<linearGradient id="paint0_linear_2020_4062" x1="-0.00756836" y1="12" x2="24.0079" y2="12" gradientUnits="userSpaceOnUse">
<stop stop-color="#ED90C8"/>
<stop offset="1" stop-color="#FFAF88"/>
</linearGradient>
<clipPath id="clip0_2020_4062">
<rect width="24.0152" height="24" fill="white" transform="translate(-0.00756836)"/>
</clipPath>

<linearGradient id="paint0_linear_2020_1898" x1="-0.0078125" y1="12" x2="24.0076" y2="12" gradientUnits="userSpaceOnUse">
<stop stop-color="#B882F3"/>
<stop offset="1" stop-color="#4C4482"/>
</linearGradient>
<clipPath id="clip0_2020_1898">
<rect width="24.0152" height="24" fill="white" transform="translate(-0.0078125)"/>
</clipPath>

<clipPath id="clip0_128_13421">
<rect width="336.908" height="60" fill="white"/>
</clipPath>

<clipPath id="clip0_128_20464">
<rect width="1707" height="304" fill="white"/>
</clipPath>
</defs><symbol id="arrow-circle-bottom" viewBox="0 0 24 24"><g fill="none">
<circle cx="12.1527" cy="12" r="11.3916" transform="rotate(90 12.1527 12)" stroke="white" stroke-width="0.91133"/>
<path d="M13.064 6.5325C13.064 6.02919 12.656 5.62117 12.1527 5.62117C11.6494 5.62117 11.2413 6.02919 11.2413 6.5325L13.064 6.5325ZM11.5083 18.1129C11.8642 18.4688 12.4412 18.4688 12.7971 18.1129L18.5968 12.3132C18.9527 11.9573 18.9527 11.3803 18.5968 11.0244C18.2409 10.6685 17.6638 10.6685 17.3079 11.0244L12.1527 16.1796L6.99742 11.0244C6.64152 10.6685 6.0645 10.6685 5.7086 11.0244C5.35271 11.3803 5.35271 11.9573 5.7086 12.3132L11.5083 18.1129ZM11.2413 6.5325L11.2413 17.4685L13.064 17.4685L13.064 6.5325L11.2413 6.5325Z" fill="white"/>
</g></symbol><symbol id="arrow-circle-right" viewBox="0 0 24 24"><g fill="none" fill-rule="evenodd"><circle cx="12" cy="12" r="11.544335" stroke="#fff" stroke-width=".91133"/><path d="m6.24057727 11.0400295c-.53019067 0-.96000211.4297904-.96000211.9599705s.42981144.9600758.96000211.9600758zm12.19879913 1.6387865c.3749078-.3749079.3749078-.9827241 0-1.357632l-6.1093437-6.10939637c-.3749079-.37489729-.9827242-.37489729-1.357632 0-.3749078.37490783-.3749078.98274518 0 1.35765301l5.4305278 5.43055936-5.4305278 5.4306331c-.3749078.3749078-.3749078.9827241 0 1.3576319.3749078.3749079.9827241.3749079 1.357632 0zm-12.19879913.2812598h11.51998313v-1.9200463h-11.51998313z" fill="#fff" fill-rule="nonzero"/></g></symbol><symbol id="facebook" viewBox="0 0 24 24">
<path d="M18 2H15C13.6739 2 12.4021 2.52678 11.4645 3.46447C10.5268 4.40215 10 5.67392 10 7V10H7V14H10V22H14V14H17L18 10H14V7C14 6.73478 14.1054 6.48043 14.2929 6.29289C14.4804 6.10536 14.7348 6 15 6H18V2Z" stroke="none"/>
</symbol><symbol id="icon-instagram" viewBox="0 0 18 18"><g fill="#fff" transform="translate(1 1)"><path d="m8 1.44133c2.136 0 2.3893.008 3.2327.04667.872.04 1.77.23867 2.4053.874.6413.64133.834 1.53067.874 2.40533.0387.84334.0467 1.09667.0467 3.23267s-.008 2.3893-.0467 3.2327c-.0393.8673-.2427 1.774-.874 2.4053-.6413.6413-1.53.834-2.4053.874-.8434.0387-1.0967.0467-3.2327.0467s-2.38933-.008-3.23267-.0467c-.86066-.0393-1.77933-.2473-2.40533-.874-.638-.638-.834-1.536-.874-2.4053-.03867-.8434-.04667-1.0967-.04667-3.2327s.008-2.38933.04667-3.23267c.03933-.864.24467-1.776.874-2.40533.64-.64 1.53267-.834 2.40533-.874.84334-.03867 1.09667-.04667 3.23267-.04667zm0-1.44133c-2.17267 0-2.44533.00933337-3.29867.048-1.23666.056667-2.46466.400667-3.35866 1.29467-.897337.89733-1.238003 2.12266-1.29467 3.35866-.03866663.85334-.048 1.126-.048 3.29867 0 2.1727.00933337 2.4453.048 3.2987.056667 1.2353.402 2.4666 1.29467 3.3586.89666.8967 2.124 1.238 3.35866 1.2947.85334.0387 1.126.048 3.29867.048 2.1727 0 2.4453-.0093 3.2987-.048 1.236-.0567 2.4653-.4013 3.3586-1.2947.898-.898 1.238-2.1226 1.2947-3.3586.0387-.8534.048-1.126.048-3.2987 0-2.17267-.0093-2.44533-.048-3.29867-.0567-1.23666-.4013-2.46533-1.2947-3.35866-.8953-.895337-2.126-1.23867-3.3586-1.29467-.8534-.03866663-1.126-.048-3.2987-.048z"/><path d="m8 3.892c-2.26867 0-4.108 1.83933-4.108 4.108 0 2.2687 1.83933 4.108 4.108 4.108 2.2687 0 4.108-1.8393 4.108-4.108 0-2.26867-1.8393-4.108-4.108-4.108zm0 6.7747c-1.47267 0-2.66667-1.19403-2.66667-2.6667s1.194-2.66667 2.66667-2.66667 2.6667 1.194 2.6667 2.66667-1.19403 2.6667-2.6667 2.6667z"/><path d="m12.2707 4.68933c.5302 0 .96-.4298.96-.96 0-.53019-.4298-.96-.96-.96s-.96.42981-.96.96c0 .5302.4298.96.96.96z"/></g></symbol><symbol id="icon-telegram" viewBox="0 0 18 18"><path d="m15.9898918 1.15276041c-.221 2.32861-1.1809 7.98133-1.6682 10.58980999-.2063 1.1048-.6138 1.4742-1.0066 1.5098-.8556.0786-1.5049-.5658-2.3335-1.1084-1.29629995-.8494-2.02910995-1.3785-3.28731995-2.20829999-1.45461-.95871-.51187-1.48531.3167-2.3458.21727-.22586 3.98571995-3.65432 4.05941995-3.96488.0086-.03929.0184-.18413-.0688-.26024-.0871-.0761-.2135-.05033-.3044-.02946-.1301.02946-2.20091995 1.39814-6.21367995 4.10605-.58798.40385-1.12072.60026-1.59823.59044-.52538-.01105-1.53685-.29706-2.28932-.54257-.92187-.29951-1.655923-.45909-1.592092-.96728.033143-.26515.397716-.53643 1.094942-.81385 4.29386-1.87073 7.15767-3.10439 8.59018-3.70096 4.09129995-1.701345 4.94079995-1.997176 5.49559995-2.00712041.6948-.00969659.8617.56355541.8053 1.15276041z" fill="#fff" fill-rule="evenodd" transform="translate(1 2.32)"/></symbol><symbol id="icon-vk" viewBox="0 0 18 18"><path d="m15.3041 10.689174h1.9688c.5626 0 .845-.2813.6807-.8371-.1778-.55351-.8157-1.35567-1.6617-2.30747-.459-.54227-1.1464-1.12618-1.3557-1.41869-.2925-.37577-.2093-.54227 0-.87641 0 0 2.3986-3.37854 2.6495-4.5261.126-.41739 0-.723404-.5951-.723404h-1.9689c-.5018 0-.7313.264387-.8573.556904 0 0-1.0013 2.44024-2.42 4.02544-.459.45902-.6671.60528-.918.60528-.1249 0-.306-.14626-.306-.56253v-3.90056c0-.500646-.1452-.723406-.56255-.723406h-3.09502c-.31277 0-.50065.232883-.50065.452266 0 .47477.70991.58503.78304 1.91934v2.89927c0 .63453-.11476.75041-.36452.75041-.66716 0-2.29174-2.4515-3.25479-5.25625-.18901-.544529-.37802-.765036-.88092-.765036h-1.96996c-.562527 0-.67503.264382-.67503.556896 0 .5209.667156 3.1074 3.10852 6.52869 1.62795 2.33556 3.92082 3.60246 6.00666 3.60246 1.25222 0 1.40632-.2824 1.40632-.7662v-1.76521c0-.56253.1181-.67504.5153-.67504.2914 0 .792.14626 1.9609 1.27244 1.3355 1.33541 1.556 1.93401 2.3064 1.93401z" fill="#fff" transform="translate(0 3.75)"/></symbol><symbol id="icon-youtube" viewBox="0 0 18 18"><path d="m15.665308 1.760002c-.184-.69267-.726-1.238668-1.4146-1.424001-1.2474-.336001-6.250708-.336001-6.250708-.336001s-5.003332 0-6.251332.336001c-.688.185333-1.23.730671-1.414 1.424001-.334668 1.256-.334668 3.876-.334668 3.876s0 2.62.334668 3.876c.184.6927.726 1.2387 1.41467 1.424 1.24733.336 6.250662.336 6.250662.336s5.003308 0 6.251308-.336c.688-.1853 1.23-.7307 1.4147-1.424.333992-1.256.333992-3.876.333992-3.876s0-2.62-.334692-3.876zm-9.30131 6.25533v-4.75867l4.18131 2.37934z" fill="#fff" transform="translate(1 3.36)"/></symbol><symbol id="instagram" viewBox="0 0 24 24">
<path d="M17 2H7C4.23858 2 2 4.23858 2 7V17C2 19.7614 4.23858 22 7 22H17C19.7614 22 22 19.7614 22 17V7C22 4.23858 19.7614 2 17 2Z" fill="none" stroke-width="2" stroke-linecap="round" stroke-linejoin="round"/>
<path d="M15.9997 11.37C16.1231 12.2022 15.981 13.0522 15.5935 13.799C15.206 14.5458 14.5929 15.1514 13.8413 15.5297C13.0898 15.9079 12.2382 16.0396 11.4075 15.9059C10.5768 15.7723 9.80947 15.3801 9.21455 14.7852C8.61962 14.1902 8.22744 13.4229 8.09377 12.5922C7.96011 11.7615 8.09177 10.9099 8.47003 10.1584C8.84829 9.40685 9.45389 8.79374 10.2007 8.40624C10.9475 8.01874 11.7975 7.87658 12.6297 8C13.4786 8.12588 14.2646 8.52146 14.8714 9.1283C15.4782 9.73515 15.8738 10.5211 15.9997 11.37Z" fill="none" stroke-width="2" stroke-linecap="round" stroke-linejoin="round"/>
<path d="M17.5 6.5H17.51" fill="none" stroke-width="2" stroke-linecap="round" stroke-linejoin="round"/>
</symbol><symbol id="like-blue" viewBox="0 0 24 24"><g fill="none">
<g clip-path="url(#clip0_186_3432)">
<path d="M6.6392 23.9943C6.6392 23.9945 6.63908 23.9946 6.63893 23.9946C4.53603 23.9946 2.43312 23.9902 0.330211 24C0.0790011 24.0011 -0.00835256 23.9468 -0.00780999 23.6766C0.000871114 19.8309 -0.011608 15.9852 0.000328546 12.14C0.0111799 8.64421 1.25258 5.6552 3.79614 3.24565C5.71575 1.4275 8.00865 0.366778 10.6412 0.075418C16.3913 -0.561558 21.7004 2.89027 23.4475 8.3892C25.5011 14.8539 21.7221 21.77 15.1548 23.5681C14.0778 23.8633 12.9786 23.9881 11.8652 23.9924C10.1237 23.9989 8.38157 23.994 6.63947 23.994C6.63933 23.994 6.6392 23.9942 6.6392 23.9943ZM12.7942 8.37992C12.2186 8.73977 11.5003 8.77791 10.932 8.40657C9.23485 7.29647 6.94358 7.97251 6.21763 9.80802C5.76838 10.9442 5.90511 12.0543 6.50302 13.1112C7.019 14.0227 7.75907 14.7356 8.56044 15.3873C9.56799 16.2065 10.5907 17.0074 11.6059 17.8174C11.7849 17.9601 11.9439 17.9346 12.1159 17.7968C12.8185 17.232 13.5206 16.6656 14.2335 16.1138C15.1125 15.4339 15.9915 14.7552 16.6784 13.8681C17.3967 12.9403 17.8313 11.9257 17.7082 10.7152C17.5134 8.79939 15.7001 7.50048 13.8234 7.94864C13.4457 8.0388 13.1044 8.18604 12.7942 8.37992Z" fill="url(#paint0_linear_186_3432)"/>
<path d="M10.9323 8.40603C11.5005 8.77732 12.2188 8.73897 12.7944 8.37923C13.1045 8.18542 13.4458 8.03824 13.8237 7.9481C15.7004 7.49994 17.5132 8.79885 17.7085 10.7147C17.8317 11.9251 17.3971 12.9403 16.6787 13.8675C15.9918 14.7546 15.1128 15.4334 14.2339 16.1132C13.5209 16.665 12.8189 17.2315 12.1162 17.7963C11.9442 17.9346 11.7853 17.9596 11.6062 17.8169C10.5911 17.0068 9.56833 16.206 8.56078 15.3867C7.7594 14.7351 7.01934 14.0222 6.50336 13.1106C5.90544 12.0537 5.76872 10.9436 6.21796 9.80748C6.94338 7.97197 9.23519 7.29593 10.9323 8.40603Z" fill="white"/>
</g>

</g></symbol><symbol id="like-green" viewBox="0 0 24 24"><g fill="none">
<g clip-path="url(#clip0_2020_2607)">
<path d="M6.6392 23.9943C6.6392 23.9945 6.63908 23.9946 6.63893 23.9946C4.53603 23.9946 2.43312 23.9902 0.330211 24C0.0790011 24.0011 -0.00835256 23.9468 -0.00780999 23.6766C0.000871114 19.8309 -0.011608 15.9852 0.000328546 12.14C0.0111799 8.64421 1.25258 5.6552 3.79614 3.24565C5.71575 1.4275 8.00865 0.366778 10.6412 0.075418C16.3913 -0.561558 21.7004 2.89027 23.4475 8.3892C25.5011 14.8539 21.7221 21.77 15.1548 23.5681C14.0778 23.8633 12.9786 23.9881 11.8652 23.9924C10.1237 23.9989 8.38157 23.994 6.63947 23.994C6.63933 23.994 6.6392 23.9942 6.6392 23.9943ZM12.7942 8.37992C12.2186 8.73977 11.5003 8.77791 10.932 8.40657C9.23485 7.29647 6.94358 7.97251 6.21763 9.80802C5.76838 10.9442 5.90511 12.0543 6.50302 13.1112C7.019 14.0227 7.75907 14.7356 8.56044 15.3873C9.56799 16.2065 10.5907 17.0074 11.6059 17.8174C11.7849 17.9601 11.9439 17.9346 12.1159 17.7968C12.8185 17.232 13.5206 16.6656 14.2335 16.1138C15.1125 15.4339 15.9915 14.7552 16.6784 13.8681C17.3967 12.9403 17.8313 11.9257 17.7082 10.7152C17.5134 8.79939 15.7001 7.50048 13.8234 7.94864C13.4457 8.0388 13.1044 8.18604 12.7942 8.37992Z" fill="url(#paint0_linear_2020_2607)"/>
<path d="M10.9319 8.40601C11.5001 8.7773 12.2183 8.73896 12.7939 8.37921C13.104 8.1854 13.4454 8.03822 13.8232 7.94808C15.7 7.49992 17.5127 8.79883 17.708 10.7146C17.8312 11.9251 17.3966 12.9403 16.6782 13.8675C15.9913 14.7546 15.1124 15.4334 14.2334 16.1132C13.5205 16.665 12.8184 17.2314 12.1157 17.7963C11.9437 17.9346 11.7848 17.9596 11.6057 17.8169C10.5906 17.0068 9.56784 16.206 8.56029 15.3867C7.75891 14.7351 7.01885 14.0221 6.50287 13.1106C5.90496 12.0537 5.76823 10.9436 6.21748 9.80747C6.94289 7.97196 9.2347 7.29591 10.9319 8.40601Z" fill="white"/>
</g>

</g></symbol><symbol id="like-pink" viewBox="0 0 24 24"><g fill="none">
<g clip-path="url(#clip0_2020_4062)">
<path d="M6.63945 23.9943C6.63945 23.9945 6.63933 23.9946 6.63918 23.9946C4.53627 23.9946 2.43336 23.9902 0.330455 24C0.0792452 24.0011 -0.00810842 23.9468 -0.00756585 23.6766C0.00111526 19.8309 -0.0113638 15.9852 0.000572687 12.14C0.0114241 8.64421 1.25282 5.6552 3.79639 3.24565C5.716 1.4275 8.00889 0.366778 10.6414 0.0754179C16.3916 -0.561558 21.7006 2.89027 23.4477 8.3892C25.5013 14.8539 21.7223 21.77 15.1551 23.5681C14.0781 23.8633 12.9788 23.9881 11.8655 23.9924C10.1239 23.9989 8.38182 23.994 6.63972 23.994C6.63957 23.994 6.63945 23.9942 6.63945 23.9943V23.9943ZM12.7945 8.37992C12.2189 8.73977 11.5005 8.77791 10.9323 8.40657V8.40657C9.2351 7.29647 6.94383 7.97251 6.21787 9.80802C5.76862 10.9442 5.90535 12.0543 6.50326 13.1112C7.01925 14.0227 7.75931 14.7356 8.56069 15.3873C9.56824 16.2065 10.591 17.0074 11.6061 17.8174C11.7852 17.9601 11.9441 17.9346 12.1161 17.7968C12.8188 17.232 13.5209 16.6656 14.2338 16.1138C15.1128 15.4339 15.9917 14.7552 16.6786 13.8681C17.397 12.9403 17.8316 11.9257 17.7084 10.7152C17.5136 8.79939 15.7004 7.50048 13.8236 7.94864C13.4459 8.0388 13.1046 8.18604 12.7945 8.37992Z" fill="url(#paint0_linear_2020_4062)"/>
<path d="M10.9323 8.40602C11.5005 8.77732 12.2188 8.73897 12.7944 8.37923C13.1045 8.18541 13.4458 8.03823 13.8237 7.94809C15.7004 7.49993 17.5132 8.79884 17.7085 10.7147C17.8317 11.9251 17.3971 12.9403 16.6787 13.8675C15.9918 14.7546 15.1128 15.4334 14.2339 16.1132C13.5209 16.665 12.8189 17.2315 12.1162 17.7963C11.9442 17.9346 11.7853 17.9596 11.6062 17.8169C10.5911 17.0068 9.56833 16.206 8.56078 15.3867C7.7594 14.7351 7.01934 14.0222 6.50336 13.1106C5.90544 12.0537 5.76872 10.9436 6.21796 9.80748C6.94338 7.97197 9.23519 7.29593 10.9323 8.40602V8.40602Z" fill="white"/>
</g>

</g></symbol><symbol id="like-purple" viewBox="0 0 24 24"><g fill="none">
<g clip-path="url(#clip0_2020_1898)">
<path d="M6.6392 23.9943C6.6392 23.9945 6.63908 23.9946 6.63893 23.9946C4.53603 23.9946 2.43312 23.9902 0.330211 24C0.0790011 24.0011 -0.00835256 23.9468 -0.00780999 23.6766C0.000871114 19.8309 -0.011608 15.9852 0.000328546 12.14C0.0111799 8.64421 1.25258 5.6552 3.79614 3.24565C5.71575 1.4275 8.00865 0.366778 10.6412 0.075418C16.3913 -0.561558 21.7004 2.89027 23.4475 8.3892C25.5011 14.8539 21.7221 21.77 15.1548 23.5681C14.0778 23.8633 12.9786 23.9881 11.8652 23.9924C10.1237 23.9989 8.38157 23.994 6.63947 23.994C6.63933 23.994 6.6392 23.9942 6.6392 23.9943ZM12.7942 8.37992C12.2186 8.73977 11.5003 8.77791 10.932 8.40657C9.23485 7.29647 6.94358 7.97251 6.21763 9.80802C5.76838 10.9442 5.90511 12.0543 6.50302 13.1112C7.019 14.0227 7.75907 14.7356 8.56044 15.3873C9.56799 16.2065 10.5907 17.0074 11.6059 17.8174C11.7849 17.9601 11.9439 17.9346 12.1159 17.7968C12.8185 17.232 13.5206 16.6656 14.2335 16.1138C15.1125 15.4339 15.9915 14.7552 16.6784 13.8681C17.3967 12.9403 17.8313 11.9257 17.7082 10.7152C17.5134 8.79939 15.7001 7.50048 13.8234 7.94864C13.4457 8.0388 13.1044 8.18604 12.7942 8.37992Z" fill="url(#paint0_linear_2020_1898)"/>
<path d="M10.9319 8.40601C11.5001 8.7773 12.2183 8.73896 12.7939 8.37921C13.104 8.1854 13.4454 8.03822 13.8232 7.94808C15.7 7.49992 17.5127 8.79883 17.708 10.7146C17.8312 11.9251 17.3966 12.9403 16.6782 13.8675C15.9913 14.7546 15.1124 15.4334 14.2334 16.1132C13.5205 16.665 12.8184 17.2314 12.1157 17.7963C11.9437 17.9346 11.7848 17.9596 11.6057 17.8169C10.5906 17.0068 9.56784 16.206 8.56029 15.3867C7.75891 14.7351 7.01885 14.0221 6.50287 13.1106C5.90496 12.0537 5.76823 10.9436 6.21748 9.80747C6.94289 7.97196 9.2347 7.29591 10.9319 8.40601Z" fill="white"/>
</g>

</g></symbol><symbol id="logo-blogema-footer" viewBox="0 0 337 60"><g fill="none">
<g clip-path="url(#clip0_128_13421)">
<path fill-rule="evenodd" clip-rule="evenodd" d="M123.366 0.0651855C133.937 4.54917 139.11 17.7651 139.11 29.0594C139.11 40.3536 133.937 53.6202 123.411 58.0985C136.681 54.8957 145.335 43.7363 145.335 29.0594C145.335 14.3825 136.681 3.22308 123.366 0.0651855Z" fill="white"/>
<path fill-rule="evenodd" clip-rule="evenodd" d="M107.397 0.0651855C94.0824 3.22308 85.4287 14.4274 85.4287 29.0594C85.4287 43.6913 94.0768 54.8957 107.397 58.0985C96.8264 53.6145 91.6533 40.3986 91.6533 29.0594C91.6533 17.7202 96.8713 4.54917 107.397 0.0651855Z" fill="white"/>
<path fill-rule="evenodd" clip-rule="evenodd" d="M241.341 53.2334C240.469 55.9755 238.962 58.2175 236.949 59.9088H245.783C243.725 58.2175 242.257 55.9755 241.347 53.2334H241.341Z" fill="white"/>
<path fill-rule="evenodd" clip-rule="evenodd" d="M288.382 0.0442198L281.426 -0.000732422V55.3804C281.426 57.392 280.785 58.9935 279.548 59.9993H288.382C287.145 58.9935 286.504 57.392 286.504 55.3804V4.66306C286.504 2.6065 287.19 1.05003 288.382 0.0442198Z" fill="white"/>
<path fill-rule="evenodd" clip-rule="evenodd" d="M238.867 0.0881348C240.008 1.09394 240.7 2.60546 240.7 4.57212L262.668 57.346L265.553 49.249L244.861 0.0881348H238.867Z" fill="white"/>
<path fill-rule="evenodd" clip-rule="evenodd" d="M196.937 4.63908V55.3564C196.937 57.3681 196.296 58.9245 195.104 59.9303H202.014V0.0651855H195.104C196.296 1.07099 196.937 2.62746 196.937 4.63908Z" fill="white"/>
<path fill-rule="evenodd" clip-rule="evenodd" d="M212.405 26.2286C215.149 27.1445 217.392 28.6054 219.085 30.6171V21.7896C217.392 23.8461 215.149 25.3127 212.405 26.2286Z" fill="white"/>
<path fill-rule="evenodd" clip-rule="evenodd" d="M219.361 59.9318H229.111V53.2563C227.098 56.3637 223.758 58.7461 219.361 59.9318Z" fill="white"/>
<path fill-rule="evenodd" clip-rule="evenodd" d="M229.105 6.69564V0.0651855H219.355C223.747 1.25642 227.087 3.58832 229.105 6.69564Z" fill="white"/>
<path fill-rule="evenodd" clip-rule="evenodd" d="M48.5478 53.2563C46.0737 55.9984 44.2462 58.0101 41.6372 59.9318H50.4708C49.4193 58.2404 47.8618 55.9984 48.5478 53.2563Z" fill="white"/>
<path fill-rule="evenodd" clip-rule="evenodd" d="M79.4851 55.6767C74.9081 37.1115 70.2861 18.5855 65.709 0.0651855H61.5424L61.132 1.80147L72.2541 47.7651H72.2991L74.0815 55.0362C74.5876 57.0927 74.357 58.8346 73.3056 59.9303H82.3191C80.9471 58.9695 79.9406 57.5535 79.4795 55.6767H79.4851Z" fill="white"/>
<path fill-rule="evenodd" clip-rule="evenodd" d="M336.908 59.9303C335.536 58.9695 334.53 57.5535 334.069 55.6767C329.492 37.1115 324.87 18.5855 320.293 0.0651855H316.126L315.715 1.80147L324.538 38.2746C322.66 39.8367 320.427 41.0448 317.925 41.8932C321.541 43.1182 324.611 45.0736 326.832 47.7539V47.7651H326.843C326.843 47.7651 326.877 47.8045 326.894 47.8269L328.665 55.0362C329.171 57.0927 328.941 58.8346 327.889 59.9303H336.903H336.908Z" fill="white"/>
<path fill-rule="evenodd" clip-rule="evenodd" d="M303.13 53.2563C300.662 55.9984 298.829 58.0101 296.22 59.9318H305.053C304.002 58.2404 302.444 55.9984 303.13 53.2563Z" fill="white"/>
<path fill-rule="evenodd" clip-rule="evenodd" d="M160.084 55.3564V0.0651855H153.174C154.366 1.07099 155.052 2.62746 155.052 4.63908V55.3564C155.052 57.3681 154.366 58.9245 153.174 59.9303H161.962C160.77 58.9245 160.084 57.3681 160.084 55.3564Z" fill="white"/>
<path fill-rule="evenodd" clip-rule="evenodd" d="M187.265 6.69564V0.0651855H177.47C181.861 1.25642 185.252 3.58832 187.265 6.69564Z" fill="white"/>
<path fill-rule="evenodd" clip-rule="evenodd" d="M34.091 6.69564V0.0651855H24.2959C28.6874 1.25642 32.078 3.58832 34.091 6.69564Z" fill="white"/>
<path fill-rule="evenodd" clip-rule="evenodd" d="M6.91056 55.3564V0.0651855H0C1.19206 1.07099 1.87805 2.62746 1.87805 4.63908V55.3564C1.87805 57.3681 1.19206 58.9245 0 59.9303H8.78861C7.59655 58.9245 6.91056 57.3681 6.91056 55.3564Z" fill="white"/>
<path fill-rule="evenodd" clip-rule="evenodd" d="M22.2834 26.7666H21.7098C28.2886 29.2277 31.4375 36.7741 31.3194 43.8035C31.2069 50.552 27.9456 57.5252 21.7098 59.9245H22.2834C32.5227 59.9245 38.5898 53.4626 38.5336 43.3989C38.4774 33.3914 32.5283 26.761 22.2834 26.761V26.7666Z" fill="white"/>
</g>

</g></symbol><symbol id="logo-blogema-header" viewBox="0 0 88 53"><g fill="none">
<path d="M56.49 12.25L55.01 0.26001L53.53 12.25C53.52 12.3 53.52 12.36 53.51 12.42C52.39 20.94 38.07 22.4001 34.71 14.3101C34.43 13.6401 34.21 12.96 34.04 12.25L31.22 0.26001L28.4 12.25C26.99 18.25 21.41 22.94 14.26 24.13L0 26.5L14.26 28.87C21.41 30.06 26.99 34.75 28.4 40.75L31.22 52.74L34.04 40.75C34.2 40.04 34.43 39.3601 34.7 38.6901C38.07 30.6001 52.39 32.06 53.51 40.58C53.52 40.64 53.52 40.7 53.53 40.75L55.01 52.74L56.49 40.75C57.23 34.75 60.1701 30.06 63.9301 28.87L66.41 28.08C68.93 27.29 71.76 27.58 73.97 28.87C76 30.05 77.6 34.75 78 40.75L78.8 52.74L79.6 40.75C80 34.75 81.6 30.05 83.63 28.87C84.65 28.27 87.7 26.5 87.7 26.5C87.7 26.5 84.65 24.72 83.63 24.13C81.6 22.94 80 18.25 79.6 12.25L78.8101 0.26001L78 12.25C77.6 18.25 76.01 22.94 73.97 24.13C71.76 25.42 68.94 25.71 66.42 24.92L63.9301 24.13C60.1701 22.94 57.24 18.25 56.5 12.25H56.49Z" fill="white"/>
</g></symbol><symbol id="logo-blogema-hero" viewBox="0 0 1707 304"><g fill="none">
<g clip-path="url(#clip0_128_20464)">
<path fill-rule="evenodd" clip-rule="evenodd" d="M625.058 0.342041C678.618 23.0609 704.828 90.0218 704.828 147.246C704.828 204.47 678.618 271.687 625.286 294.378C692.521 278.15 736.366 221.609 736.366 147.246C736.366 72.883 692.521 16.342 625.058 0.342041Z" fill="white"/>
<path fill-rule="evenodd" clip-rule="evenodd" d="M544.147 0.342041C476.684 16.342 432.839 73.1107 432.839 147.246C432.839 221.381 476.656 278.15 544.147 294.378C490.587 271.659 464.377 204.698 464.377 147.246C464.377 89.794 490.815 23.0609 544.147 0.342041Z" fill="white"/>
<path fill-rule="evenodd" clip-rule="evenodd" d="M1222.8 269.722C1218.38 283.616 1210.74 294.975 1200.55 303.544H1245.3C1234.88 294.975 1227.44 283.616 1222.82 269.722H1222.8Z" fill="white"/>
<path fill-rule="evenodd" clip-rule="evenodd" d="M1461.14 0.228002L1425.89 0.000244141V280.598C1425.89 290.79 1422.65 298.904 1416.38 304H1461.14C1454.87 298.904 1451.62 290.79 1451.62 280.598V23.6301C1451.62 13.2102 1455.1 5.32409 1461.14 0.228002Z" fill="white"/>
<path fill-rule="evenodd" clip-rule="evenodd" d="M1210.26 0.455078C1216.04 5.55116 1219.55 13.2095 1219.55 23.1739L1330.85 290.562L1345.47 249.537L1240.63 0.455078H1210.26Z" fill="white"/>
<path fill-rule="evenodd" clip-rule="evenodd" d="M997.814 23.5164V280.484C997.814 290.677 994.566 298.563 988.526 303.659H1023.54V0.342041H988.526C994.566 5.43813 997.814 13.3242 997.814 23.5164Z" fill="white"/>
<path fill-rule="evenodd" clip-rule="evenodd" d="M1076.19 132.897C1090.09 137.537 1101.46 144.94 1110.03 155.132V110.406C1101.46 120.826 1090.09 128.256 1076.19 132.897Z" fill="white"/>
<path fill-rule="evenodd" clip-rule="evenodd" d="M1111.43 303.659H1160.83V269.837C1150.63 285.58 1133.71 297.652 1111.43 303.659Z" fill="white"/>
<path fill-rule="evenodd" clip-rule="evenodd" d="M1160.8 33.9363V0.342041H1111.4C1133.65 6.37763 1150.57 18.1926 1160.8 33.9363Z" fill="white"/>
<path fill-rule="evenodd" clip-rule="evenodd" d="M245.978 269.837C233.442 283.73 224.183 293.922 210.964 303.659H255.721C250.393 295.089 242.502 283.73 245.978 269.837Z" fill="white"/>
<path fill-rule="evenodd" clip-rule="evenodd" d="M402.726 282.107C379.536 188.043 356.117 94.1783 332.927 0.342041H311.816L309.737 9.1392L366.089 242.022H366.317L375.348 278.862C377.912 289.282 376.744 298.107 371.416 303.659H417.085C410.133 298.79 405.034 291.616 402.698 282.107H402.726Z" fill="white"/>
<path fill-rule="evenodd" clip-rule="evenodd" d="M1707 303.659C1700.05 298.79 1694.95 291.616 1692.61 282.107C1669.42 188.043 1646.01 94.1783 1622.81 0.342041H1601.7L1599.62 9.1392L1644.32 193.936C1634.81 201.851 1623.5 207.972 1610.82 212.271C1629.14 218.477 1644.69 228.385 1655.95 241.965V242.022H1656.01C1656.01 242.022 1656.18 242.221 1656.26 242.335L1665.24 278.862C1667.8 289.282 1666.63 298.107 1661.3 303.659H1706.97H1707Z" fill="white"/>
<path fill-rule="evenodd" clip-rule="evenodd" d="M1535.86 269.837C1523.36 283.73 1514.07 293.922 1500.85 303.659H1545.61C1540.28 295.089 1532.39 283.73 1535.86 269.837Z" fill="white"/>
<path fill-rule="evenodd" clip-rule="evenodd" d="M811.094 280.484V0.342041H776.08C782.12 5.43813 785.596 13.3242 785.596 23.5164V280.484C785.596 290.677 782.12 298.563 776.08 303.659H820.609C814.569 298.563 811.094 290.677 811.094 280.484Z" fill="white"/>
<path fill-rule="evenodd" clip-rule="evenodd" d="M948.811 33.9363V0.342041H899.182C921.433 6.37763 938.612 18.1926 948.811 33.9363Z" fill="white"/>
<path fill-rule="evenodd" clip-rule="evenodd" d="M172.731 33.9363V0.342041H123.102C145.353 6.37763 162.532 18.1926 172.731 33.9363Z" fill="white"/>
<path fill-rule="evenodd" clip-rule="evenodd" d="M35.0135 280.484V0.342041H0C6.03975 5.43813 9.51546 13.3242 9.51546 23.5164V280.484C9.51546 290.677 6.03975 298.563 0 303.659H44.5289C38.4892 298.563 35.0135 290.677 35.0135 280.484Z" fill="white"/>
<path fill-rule="evenodd" clip-rule="evenodd" d="M112.904 135.63H109.999C143.331 148.099 159.285 186.334 158.687 221.95C158.117 256.142 141.593 291.473 109.999 303.63H112.904C164.784 303.63 195.524 270.889 195.239 219.9C194.954 169.195 164.812 135.601 112.904 135.601V135.63Z" fill="white"/>
</g>

</g></symbol><symbol id="start" viewBox="0 0 161 153"><g fill="none">
<path d="M58.708 79.9502L0 76.4995L58.708 73.0502C69.039 72.4424 77.369 61.254 78.007 47.1269L80.119 0.386597L82.232 47.1269C82.87 61.254 91.2 72.4424 101.531 73.0502L160.239 76.4995L101.531 79.9502C91.2 80.5566 82.87 91.7464 82.232 105.874L80.119 152.614L78.007 105.874C77.369 91.7464 69.039 80.5566 58.708 79.9502Z" fill="white"/>
</g></symbol><symbol id="twitter" viewBox="0 0 24 24">
<path d="M23 3C22.0424 3.67548 20.9821 4.19211 19.86 4.53C19.2577 3.83751 18.4573 3.34669 17.567 3.12393C16.6767 2.90116 15.7395 2.9572 14.8821 3.28445C14.0247 3.61171 13.2884 4.1944 12.773 4.95372C12.2575 5.71303 11.9877 6.61234 12 7.53V8.53C10.2426 8.57557 8.50127 8.18581 6.93101 7.39545C5.36074 6.60508 4.01032 5.43864 3 4C3 4 -1 13 8 17C5.94053 18.398 3.48716 19.0989 1 19C10 24 21 19 21 7.5C20.9991 7.22145 20.9723 6.94359 20.92 6.67C21.9406 5.66349 22.6608 4.39271 23 3Z" stroke="none"/>
</symbol></svg>